<?xml version="1.0" encoding="UTF-8"?>
<svg xmlns="http://www.w3.org/2000/svg" xmlns:xlink="http://www.w3.org/1999/xlink" width="96pt" height="96pt" viewBox="0 0 96 96" version="1.1">
<g id="surface140101">
<path style=" stroke:none;fill-rule:nonzero;fill:rgb(87.843137%,87.843137%,87.843137%);fill-opacity:1;" d="M 11 81 L 85 81 C 88.867188 81 92 77.867188 92 74 L 92 22 C 92 18.132812 88.867188 15 85 15 L 11 15 C 7.132812 15 4 18.132812 4 22 L 4 74 C 4 77.867188 7.132812 81 11 81 Z M 11 81 "/>
<path style=" stroke:none;fill-rule:nonzero;fill:rgb(85.098039%,85.098039%,85.098039%);fill-opacity:1;" d="M 52 81 L 85 81 C 88.867188 81 92 77.867188 92 74 L 92 22 C 92 18.132812 88.867188 15 85 15 L 11 15 C 7.132812 15 4 18.132812 4 22 Z M 52 81 "/>
<path style=" stroke:none;fill-rule:nonzero;fill:rgb(93.333333%,93.333333%,93.333333%);fill-opacity:1;" d="M 13.488281 81 L 85 81 C 88.867188 81 92 77.867188 92 74 L 92 23 Z M 13.488281 81 "/>
<path style=" stroke:none;fill-rule:nonzero;fill:rgb(87.843137%,87.843137%,87.843137%);fill-opacity:1;" d="M 51.488281 81 L 85 81 C 88.867188 81 92 77.867188 92 74 L 92 23 L 37.542969 63.230469 Z M 51.488281 81 "/>
<path style=" stroke:none;fill-rule:nonzero;fill:rgb(81.960784%,54.901961%,80.784314%);fill-opacity:1;" d="M 85 19 L 11 19 C 7.132812 19 4 18.132812 4 22 L 4 74 C 4 77.867188 7.132812 81 11 81 L 14 81 L 14 24 L 82 24 L 82 81 L 85 81 C 88.867188 81 92 77.867188 92 74 L 92 22 C 92 18.132812 88.867188 19 85 19 Z M 85 19 "/>
<path style=" stroke:none;fill-rule:nonzero;fill:rgb(96.078431%,96.078431%,96.078431%);fill-opacity:1;" d="M 85 15 L 11 15 C 7.132812 15 4 18.070312 4 22 C 4 24.410156 7.035156 26.515625 7.035156 26.515625 L 48 55.511719 L 88.964844 26.519531 C 88.964844 26.519531 92 24.410156 92 22.003906 C 92 18.070312 88.867188 15 85 15 Z M 85 15 "/>
<path style=" stroke:none;fill-rule:nonzero;fill:rgb(81.960784%,54.901961%,80.784314%);fill-opacity:1;" d="M 86.492188 15.164062 L 48 42 L 9.507812 15.164062 C 6.359375 15.839844 4 18.59375 4 22 C 4 24.410156 7.035156 26.515625 7.035156 26.515625 L 48 55.511719 L 88.964844 26.519531 C 88.964844 26.519531 92 24.410156 92 22.003906 C 92 18.59375 89.640625 15.839844 86.492188 15.164062 Z M 86.492188 15.164062 "/>
</g>
</svg>
